<?xml version="1.0" encoding="iso-8859-1"?>
<!-- Generator: Adobe Illustrator 19.0.0, SVG Export Plug-In . SVG Version: 6.00 Build 0)  -->
<svg version="1.1" id="Capa_1" xmlns="http://www.w3.org/2000/svg" xmlns:xlink="http://www.w3.org/1999/xlink" x="0px" y="0px"
	 viewBox="0 0 54.574 54.574" style="enable-background:new 0 0 54.574 54.574;" xml:space="preserve">
<g>
	<g>
		<path d="M46.936,25.127c-0.127-0.013-0.242-0.025-0.346-0.037c-0.766-6.683-6.426-11.804-13.232-11.804
			c-2.409,0-6.142,1.152-7.869,2.182l-0.506,0.301l0.766,25.46L48,41.287c4.115,0,6.574-4.192,6.574-8.246
			C54.574,28.829,51.434,25.575,46.936,25.127z M48.004,39.287L34.047,39.23h-6.357l-0.671-22.315
			c1.62-0.793,4.521-1.628,6.339-1.628c6.021,0,10.987,4.717,11.304,10.738l0.045,0.781l0.768,0.149c0,0,0.395,0.077,1.265,0.163
			c3.436,0.342,5.836,2.778,5.836,5.924C52.574,36.045,50.825,39.287,48.004,39.287z"/>
		<rect x="20" y="19.287" width="2" height="22"/>
		<rect x="15" y="21.287" width="2" height="20"/>
		<rect x="10" y="22.287" width="2" height="19"/>
		<rect x="5" y="26.287" width="2" height="15"/>
		<rect y="29.287" width="2" height="9"/>
	</g>
</g>
<g>
</g>
<g>
</g>
<g>
</g>
<g>
</g>
<g>
</g>
<g>
</g>
<g>
</g>
<g>
</g>
<g>
</g>
<g>
</g>
<g>
</g>
<g>
</g>
<g>
</g>
<g>
</g>
<g>
</g>
</svg>
